<svg width="428" height="428" viewBox="0 0 428 428" fill="none" xmlns="http://www.w3.org/2000/svg">
<path d="M0.671764 206.404C-1.51569 114.661 73.2183 16.6238 186.822 2.73866C254.777 -5.57322 314.511 14.9903 363.789 63.4923C372.322 71.9002 372.082 73.5098 360.76 77.9059C309.159 98.3734 257.509 118.777 205.812 139.116C194.297 143.656 182.783 148.197 171.341 152.905C165.019 155.524 161.125 159.752 164.635 167.03C167.832 173.661 172.808 174.79 179.682 172.051C243.912 146.571 308.197 121.187 372.539 95.899C385.207 90.9023 388.957 92.3436 396.168 104.211C420.422 144.257 431.816 187.978 425.783 234.174C416.913 301.942 386.457 357.891 326.65 394.911C247.614 443.845 150.164 437.551 77.9057 378.983C75.2375 376.821 70.6943 374.972 71.4395 371.08C72.0645 367.741 76.7519 367.717 79.7326 366.54C149.026 339.074 218.327 311.64 287.637 284.238C296.29 280.802 299.247 275.613 296.194 269.175C292.613 261.608 286.363 262.185 279.969 264.707C224.377 286.6 168.785 308.525 113.193 330.481C95.7899 337.352 78.4345 344.351 61.1272 351.477C55.3581 353.88 51.2957 353.087 47.089 347.73C16.1041 308.405 0.0948535 263.986 0.671764 206.404Z" fill="url(#paint0_linear_2161_1374)" fill-opacity="0.8"/>
<defs>
<linearGradient id="paint0_linear_2161_1374" x1="31.3201" y1="88.0916" x2="388.281" y2="335.833" gradientUnits="userSpaceOnUse">
<stop stop-color="#49B3E8"/>
<stop offset="0.493" stop-color="#368FE6"/>
<stop offset="0.978" stop-color="#223AD4"/>
</linearGradient>
</defs>
</svg>
